<svg xmlns="http://www.w3.org/2000/svg" xmlns:xlink="http://www.w3.org/1999/xlink" width="500" zoomAndPan="magnify" viewBox="0 0 375 374.999991" height="500" preserveAspectRatio="xMidYMid meet" version="1.0"><defs><g/><clipPath id="d1bb0e8116"><path d="M 2.035156 0 L 375 0 L 375 372.964844 L 2.035156 372.964844 Z M 2.035156 0 " clip-rule="nonzero"/></clipPath><clipPath id="93c63006d1"><path d="M 188.519531 0 C 85.527344 0 2.035156 83.492188 2.035156 186.480469 C 2.035156 289.472656 85.527344 372.964844 188.519531 372.964844 C 291.507812 372.964844 375 289.472656 375 186.480469 C 375 83.492188 291.507812 0 188.519531 0 Z M 188.519531 0 " clip-rule="nonzero"/></clipPath><clipPath id="91917bab92"><path d="M 208.605469 198.574219 L 256.089844 198.574219 L 256.089844 246.058594 L 208.605469 246.058594 Z M 208.605469 198.574219 " clip-rule="nonzero"/></clipPath><clipPath id="45f034eb1a"><path d="M 232.347656 198.574219 C 219.234375 198.574219 208.605469 209.203125 208.605469 222.316406 C 208.605469 235.429688 219.234375 246.058594 232.347656 246.058594 C 245.460938 246.058594 256.089844 235.429688 256.089844 222.316406 C 256.089844 209.203125 245.460938 198.574219 232.347656 198.574219 Z M 232.347656 198.574219 " clip-rule="nonzero"/></clipPath></defs><g clip-path="url(#d1bb0e8116)"><g clip-path="url(#93c63006d1)"><path fill="#f5b51f" d="M 2.035156 0 L 375 0 L 375 372.964844 L 2.035156 372.964844 Z M 2.035156 0 " fill-opacity="1" fill-rule="nonzero"/></g></g><g clip-path="url(#91917bab92)"><g clip-path="url(#45f034eb1a)"><path fill="#ffffff" d="M 208.605469 198.574219 L 256.089844 198.574219 L 256.089844 246.058594 L 208.605469 246.058594 Z M 208.605469 198.574219 " fill-opacity="1" fill-rule="nonzero"/></g></g><g fill="#000000" fill-opacity="1"><g transform="translate(54.498078, 189.590117)"><g><path d="M 61.3125 -83.46875 C 61.582031 -85.195312 61.988281 -86.648438 62.53125 -87.828125 C 63.351562 -89.640625 64.441406 -91 65.796875 -91.90625 C 66.972656 -92.8125 68.289062 -93.445312 69.75 -93.8125 C 70.5625 -94.082031 71.421875 -94.304688 72.328125 -94.484375 C 73.234375 -94.671875 74.1875 -94.804688 75.1875 -94.890625 C 75.90625 -94.984375 76.671875 -95.050781 77.484375 -95.09375 C 78.304688 -95.144531 79.171875 -95.171875 80.078125 -95.171875 L 86.609375 -95.171875 C 85.148438 -93.804688 84.0625 -92.851562 83.34375 -92.3125 C 82.976562 -91.945312 82.660156 -91.628906 82.390625 -91.359375 C 82.117188 -91.085938 81.890625 -90.816406 81.703125 -90.546875 C 81.335938 -90.085938 81.019531 -89.5 80.75 -88.78125 C 80.75 -88.320312 80.613281 -87.550781 80.34375 -86.46875 L 77.90625 -67.296875 L 71.921875 -24.203125 L 71.234375 -19.171875 C 70.960938 -16.816406 70.691406 -14.820312 70.421875 -13.1875 C 70.148438 -11.550781 69.925781 -10.328125 69.75 -9.515625 C 69.195312 -6.617188 68.425781 -4.535156 67.4375 -3.265625 C 66.257812 -1.628906 63.898438 -0.628906 60.359375 -0.265625 C 59.453125 -0.179688 58.09375 -0.113281 56.28125 -0.0625 C 54.46875 -0.0195312 52.203125 0 49.484375 0 L 18.890625 0 C 16.628906 0 14.726562 -0.0195312 13.1875 -0.0625 C 11.644531 -0.113281 10.46875 -0.140625 9.65625 -0.140625 C 5.488281 -0.410156 2.953125 -1.5 2.046875 -3.40625 C 1.585938 -4.488281 1.359375 -5.800781 1.359375 -7.34375 C 1.359375 -7.789062 1.378906 -8.21875 1.421875 -8.625 C 1.472656 -9.039062 1.5 -9.472656 1.5 -9.921875 C 1.675781 -11.640625 2.082031 -14.722656 2.71875 -19.171875 C 2.988281 -20.984375 3.304688 -23.179688 3.671875 -25.765625 C 4.035156 -28.347656 4.441406 -31.316406 4.890625 -34.671875 C 5.429688 -38.109375 5.859375 -40.9375 6.171875 -43.15625 C 6.492188 -45.382812 6.703125 -47.085938 6.796875 -48.265625 C 7.523438 -53.609375 8.066406 -57.050781 8.421875 -58.59375 C 9.148438 -61.675781 10.101562 -63.757812 11.28125 -64.84375 C 12.375 -65.9375 14.144531 -66.617188 16.59375 -66.890625 C 18.488281 -67.160156 21.929688 -67.296875 26.921875 -67.296875 L 58.59375 -67.296875 Z M 31.671875 -48.265625 C 31.398438 -48.265625 31.035156 -48.265625 30.578125 -48.265625 C 30.128906 -48.265625 29.546875 -48.21875 28.828125 -48.125 C 28.191406 -48.125 27.78125 -48.078125 27.59375 -47.984375 C 27.320312 -47.984375 27.003906 -47.804688 26.640625 -47.453125 C 26.367188 -47.179688 26.097656 -46.632812 25.828125 -45.8125 C 25.828125 -45.445312 25.691406 -44.585938 25.421875 -43.234375 L 22.03125 -19.171875 L 49.34375 -19.171875 C 50.34375 -19.347656 50.976562 -19.617188 51.25 -19.984375 C 51.519531 -20.253906 51.75 -20.707031 51.9375 -21.34375 C 52.113281 -21.613281 52.25 -22 52.34375 -22.5 C 52.4375 -23 52.523438 -23.566406 52.609375 -24.203125 L 55.875 -48.265625 Z M 31.671875 -48.265625 "/></g></g></g><g fill="#000000" fill-opacity="1"><g transform="translate(132.802964, 189.590117)"><g><path d="M 62 -67.4375 C 65.988281 -67.4375 68.796875 -67.300781 70.421875 -67.03125 C 72.421875 -66.75 73.78125 -66.296875 74.5 -65.671875 C 75.863281 -64.765625 76.546875 -62.859375 76.546875 -59.953125 C 76.546875 -59.679688 76.546875 -59.410156 76.546875 -59.140625 C 76.546875 -58.867188 76.5 -58.503906 76.40625 -58.046875 C 76.40625 -57.234375 76.3125 -56.007812 76.125 -54.375 C 75.945312 -52.75 75.675781 -50.710938 75.3125 -48.265625 L 73.140625 -33.03125 L 71.234375 -19.171875 C 70.878906 -15.910156 70.492188 -13.257812 70.078125 -11.21875 C 69.671875 -9.175781 69.285156 -7.65625 68.921875 -6.65625 C 68.378906 -4.757812 67.472656 -3.3125 66.203125 -2.3125 C 65.210938 -1.582031 63.71875 -0.992188 61.71875 -0.546875 C 60.8125 -0.453125 59.269531 -0.335938 57.09375 -0.203125 C 54.925781 -0.0664062 52.117188 0 48.671875 0 L 19.171875 0 C 15.910156 0 13.234375 -0.0664062 11.140625 -0.203125 C 9.054688 -0.335938 7.519531 -0.453125 6.53125 -0.546875 C 4.625 -0.992188 3.265625 -1.671875 2.453125 -2.578125 C 1.722656 -3.578125 1.359375 -5.164062 1.359375 -7.34375 L 1.359375 -8.15625 C 1.535156 -10.0625 1.941406 -13.734375 2.578125 -19.171875 L 3.40625 -24.203125 C 3.757812 -26.648438 4.070312 -28.6875 4.34375 -30.3125 C 4.625 -31.945312 4.804688 -33.171875 4.890625 -33.984375 C 5.523438 -37.160156 6.429688 -39.335938 7.609375 -40.515625 C 8.878906 -41.785156 10.648438 -42.554688 12.921875 -42.828125 C 14.816406 -43.097656 18.304688 -43.234375 23.390625 -43.234375 L 51.796875 -43.234375 C 52.335938 -43.234375 52.8125 -43.253906 53.21875 -43.296875 C 53.632812 -43.347656 53.882812 -43.375 53.96875 -43.375 C 54.425781 -43.457031 54.835938 -43.679688 55.203125 -44.046875 C 55.472656 -44.316406 55.609375 -44.722656 55.609375 -45.265625 C 55.785156 -45.816406 55.921875 -46.816406 56.015625 -48.265625 L 26.109375 -48.265625 C 23.660156 -48.265625 21.597656 -48.285156 19.921875 -48.328125 C 18.242188 -48.378906 16.992188 -48.445312 16.171875 -48.53125 C 13.816406 -48.894531 12.140625 -49.710938 11.140625 -50.984375 C 10.328125 -52.253906 9.785156 -54.335938 9.515625 -57.234375 C 9.515625 -58.046875 9.488281 -59.128906 9.4375 -60.484375 C 9.394531 -61.847656 9.375 -63.394531 9.375 -65.125 L 9.375 -67.4375 Z M 25.828125 -24.203125 C 24.648438 -24.203125 23.972656 -24.15625 23.796875 -24.0625 C 23.523438 -24.0625 23.207031 -23.878906 22.84375 -23.515625 C 22.65625 -23.335938 22.472656 -22.660156 22.296875 -21.484375 C 22.296875 -21.023438 22.160156 -20.253906 21.890625 -19.171875 L 48.53125 -19.171875 C 49.070312 -19.171875 49.546875 -19.191406 49.953125 -19.234375 C 50.367188 -19.285156 50.617188 -19.3125 50.703125 -19.3125 C 51.253906 -19.394531 51.570312 -19.570312 51.65625 -19.84375 C 51.84375 -20.03125 52.023438 -20.484375 52.203125 -21.203125 C 52.390625 -21.753906 52.523438 -22.753906 52.609375 -24.203125 Z M 25.828125 -24.203125 "/></g></g></g><g fill="#000000" fill-opacity="1"><g transform="translate(210.564062, 189.590117)"><g><path d="M 33.984375 -95.171875 L 30.859375 -72.328125 L 11.5625 -72.328125 L 11.96875 -76 C 12.414062 -78.625 12.773438 -80.773438 13.046875 -82.453125 C 13.316406 -84.128906 13.546875 -85.375 13.734375 -86.1875 C 14.273438 -89 15.046875 -90.953125 16.046875 -92.046875 C 17.316406 -93.492188 19.128906 -94.398438 21.484375 -94.765625 C 23.566406 -95.035156 27.734375 -95.171875 33.984375 -95.171875 Z M 10.875 -67.4375 L 30.1875 -67.4375 L 23.390625 -19.03125 C 23.023438 -16.5 22.707031 -14.367188 22.4375 -12.640625 C 22.164062 -10.921875 21.890625 -9.609375 21.609375 -8.703125 C 21.066406 -5.890625 20.160156 -3.847656 18.890625 -2.578125 C 17.441406 -1.316406 15.269531 -0.546875 12.375 -0.265625 C 11.46875 -0.179688 10.175781 -0.113281 8.5 -0.0625 C 6.820312 -0.0195312 4.757812 0 2.3125 0 L -4.078125 0 C -3.265625 -0.726562 -2.609375 -1.316406 -2.109375 -1.765625 C -1.609375 -2.222656 -1.222656 -2.585938 -0.953125 -2.859375 C 0.222656 -4.035156 0.945312 -4.804688 1.21875 -5.171875 C 1.675781 -5.804688 1.992188 -6.484375 2.171875 -7.203125 C 2.441406 -7.660156 2.625 -8.566406 2.71875 -9.921875 Z M 10.875 -67.4375 "/></g></g></g><g fill="#000000" fill-opacity="1"><g transform="translate(241.831634, 189.590117)"><g><path d="M 33.984375 -95.296875 L 31.140625 -74.5 L 27.328125 -47.3125 L 23.390625 -19.03125 C 23.023438 -16.5 22.707031 -14.394531 22.4375 -12.71875 C 22.164062 -11.039062 21.890625 -9.75 21.609375 -8.84375 C 21.066406 -6.207031 20.253906 -4.253906 19.171875 -2.984375 C 18.078125 -1.898438 16.398438 -1.085938 14.140625 -0.546875 C 12.234375 -0.273438 8.289062 -0.140625 2.3125 -0.140625 L -4.078125 -0.140625 C -3.078125 -1.128906 -2.257812 -1.894531 -1.625 -2.4375 C -1 -2.988281 -0.546875 -3.398438 -0.265625 -3.671875 C 0.722656 -4.671875 1.351562 -5.441406 1.625 -5.984375 C 1.8125 -6.253906 1.945312 -6.5 2.03125 -6.71875 C 2.125 -6.945312 2.21875 -7.203125 2.3125 -7.484375 C 2.488281 -8.023438 2.625 -8.835938 2.71875 -9.921875 L 6.25 -35.21875 L 8.96875 -53.96875 L 11.96875 -76.140625 C 12.414062 -79.035156 12.796875 -81.410156 13.109375 -83.265625 C 13.429688 -85.128906 13.6875 -86.515625 13.875 -87.421875 C 14.5 -89.773438 15.40625 -91.539062 16.59375 -92.71875 C 17.675781 -93.800781 19.257812 -94.484375 21.34375 -94.765625 C 22.34375 -94.941406 23.882812 -95.070312 25.96875 -95.15625 C 28.050781 -95.25 30.722656 -95.296875 33.984375 -95.296875 Z M 33.984375 -95.296875 "/></g></g></g><g fill="#000000" fill-opacity="1"><g transform="translate(273.099205, 189.590117)"><g><path d="M 3.8125 -67.5625 L 15.5 -67.5625 C 18.851562 -67.5625 21.207031 -67.425781 22.5625 -67.15625 C 24.375 -66.882812 25.597656 -66.34375 26.234375 -65.53125 C 26.960938 -64.800781 27.328125 -63.394531 27.328125 -61.3125 L 27.328125 -59.6875 C 27.328125 -59.144531 27.210938 -57.921875 26.984375 -56.015625 C 26.753906 -54.109375 26.414062 -51.570312 25.96875 -48.40625 L 21.890625 -19.171875 L 46.625 -19.171875 C 48.4375 -19.171875 49.617188 -19.257812 50.171875 -19.4375 C 50.617188 -19.53125 50.976562 -19.710938 51.25 -19.984375 C 51.613281 -20.523438 51.84375 -21.066406 51.9375 -21.609375 C 52.019531 -21.890625 52.109375 -22.234375 52.203125 -22.640625 C 52.296875 -23.046875 52.390625 -23.519531 52.484375 -24.0625 L 55.875 -48.40625 L 58.59375 -67.5625 C 61.039062 -67.5625 63.054688 -67.5625 64.640625 -67.5625 C 66.234375 -67.5625 67.4375 -67.519531 68.25 -67.4375 C 71.0625 -67.34375 73.054688 -66.84375 74.234375 -65.9375 C 75.585938 -65.125 76.265625 -63.628906 76.265625 -61.453125 C 76.359375 -61.265625 76.40625 -60.8125 76.40625 -60.09375 C 76.40625 -58.28125 76 -54.382812 75.1875 -48.40625 L 71.109375 -19.171875 L 68.390625 0 L 67.15625 8.703125 C 66.882812 11.148438 66.613281 13.1875 66.34375 14.8125 C 66.070312 16.445312 65.847656 17.71875 65.671875 18.625 C 65.117188 21.164062 64.253906 23.207031 63.078125 24.75 C 62.359375 25.738281 61 26.503906 59 27.046875 C 57.101562 27.597656 52.484375 27.875 45.140625 27.875 L -4.078125 27.875 C -3.441406 24.96875 -2.921875 22.609375 -2.515625 20.796875 C -2.109375 18.984375 -1.769531 17.625 -1.5 16.71875 C -0.40625 13.550781 0.953125 11.46875 2.578125 10.46875 C 4.035156 9.5625 5.847656 9.0625 8.015625 8.96875 C 8.835938 8.789062 9.992188 8.703125 11.484375 8.703125 C 12.984375 8.703125 14.726562 8.703125 16.71875 8.703125 L 40.234375 8.703125 C 41.503906 8.703125 42.503906 8.675781 43.234375 8.625 C 43.960938 8.582031 44.503906 8.5625 44.859375 8.5625 C 46.128906 8.289062 46.898438 7.929688 47.171875 7.484375 C 47.804688 6.847656 48.171875 6.03125 48.265625 5.03125 C 48.535156 4.21875 48.804688 2.539062 49.078125 0 L 17.8125 0 C 12.644531 0 9.109375 -0.132812 7.203125 -0.40625 C 4.578125 -0.945312 2.859375 -1.945312 2.046875 -3.40625 C 1.492188 -4.394531 1.21875 -5.753906 1.21875 -7.484375 C 1.21875 -8.660156 1.351562 -10.195312 1.625 -12.09375 C 1.71875 -12.820312 1.832031 -13.773438 1.96875 -14.953125 C 2.101562 -16.128906 2.265625 -17.535156 2.453125 -19.171875 L 6.53125 -48.40625 L 7.890625 -57.640625 C 8.066406 -58.367188 8.15625 -58.957031 8.15625 -59.40625 C 8.15625 -59.863281 8.15625 -60.226562 8.15625 -60.5 C 8.15625 -61.40625 8.066406 -62.039062 7.890625 -62.40625 C 7.796875 -62.769531 7.632812 -63.15625 7.40625 -63.5625 C 7.175781 -63.96875 6.835938 -64.351562 6.390625 -64.71875 C 6.210938 -64.988281 5.914062 -65.367188 5.5 -65.859375 C 5.09375 -66.359375 4.53125 -66.925781 3.8125 -67.5625 Z M 3.8125 -67.5625 "/></g></g></g><g fill="#000000" fill-opacity="1"><g transform="translate(44.742489, 261.259034)"><g><path d="M 6.53125 -48.265625 C 6.976562 -50.984375 7.359375 -53.222656 7.671875 -54.984375 C 7.992188 -56.753906 8.203125 -58.050781 8.296875 -58.875 C 9.109375 -61.769531 10.054688 -63.757812 11.140625 -64.84375 C 12.597656 -66.113281 14.726562 -66.882812 17.53125 -67.15625 C 18.53125 -67.34375 19.9375 -67.4375 21.75 -67.4375 C 23.5625 -67.4375 25.828125 -67.4375 28.546875 -67.4375 L 58.453125 -67.4375 C 60.816406 -67.4375 62.789062 -67.4375 64.375 -67.4375 C 65.957031 -67.4375 67.113281 -67.34375 67.84375 -67.15625 C 68.5625 -67.15625 69.238281 -67.109375 69.875 -67.015625 C 70.507812 -66.929688 71.007812 -66.796875 71.375 -66.609375 C 72.738281 -66.335938 73.644531 -65.882812 74.09375 -65.25 C 75.175781 -64.4375 75.765625 -63.035156 75.859375 -61.046875 L 75.859375 -55.734375 C 75.859375 -55.109375 75.789062 -54.160156 75.65625 -52.890625 C 75.519531 -51.617188 75.363281 -50.078125 75.1875 -48.265625 L 72.734375 -31.265625 L 71.109375 -19.171875 L 68.390625 -0.140625 L 67.15625 8.703125 C 66.882812 11.054688 66.613281 13.046875 66.34375 14.671875 C 66.070312 16.304688 65.847656 17.625 65.671875 18.625 C 65.117188 21.34375 64.210938 23.425781 62.953125 24.875 C 61.859375 26.144531 60.132812 26.960938 57.78125 27.328125 C 56.875 27.421875 55.351562 27.535156 53.21875 27.671875 C 51.09375 27.804688 48.398438 27.875 45.140625 27.875 L -4.078125 27.875 C -3.441406 24.96875 -2.894531 22.5625 -2.4375 20.65625 C -1.988281 18.757812 -1.628906 17.359375 -1.359375 16.453125 C -0.359375 13.460938 0.953125 11.46875 2.578125 10.46875 C 3.671875 9.738281 5.441406 9.238281 7.890625 8.96875 C 8.796875 8.789062 9.992188 8.703125 11.484375 8.703125 C 12.984375 8.703125 14.726562 8.703125 16.71875 8.703125 L 40.234375 8.703125 C 41.503906 8.703125 42.546875 8.675781 43.359375 8.625 C 44.179688 8.582031 44.773438 8.5625 45.140625 8.5625 C 46.128906 8.289062 46.804688 7.972656 47.171875 7.609375 C 47.628906 7.160156 47.992188 6.347656 48.265625 5.171875 C 48.535156 4.347656 48.804688 2.578125 49.078125 -0.140625 L 17.8125 -0.140625 C 15.269531 -0.140625 13.140625 -0.160156 11.421875 -0.203125 C 9.703125 -0.242188 8.34375 -0.3125 7.34375 -0.40625 C 4.625 -0.945312 2.859375 -1.945312 2.046875 -3.40625 C 1.492188 -4.394531 1.21875 -5.753906 1.21875 -7.484375 C 1.21875 -7.929688 1.238281 -8.378906 1.28125 -8.828125 C 1.332031 -9.285156 1.359375 -9.742188 1.359375 -10.203125 C 1.535156 -11.015625 1.691406 -12.164062 1.828125 -13.65625 C 1.972656 -15.15625 2.179688 -16.992188 2.453125 -19.171875 C 2.722656 -20.710938 3.035156 -22.75 3.390625 -25.28125 C 3.753906 -27.820312 4.164062 -30.816406 4.625 -34.265625 C 4.988281 -36.617188 5.328125 -38.972656 5.640625 -41.328125 C 5.960938 -43.679688 6.257812 -45.992188 6.53125 -48.265625 Z M 30.71875 -48.265625 C 29 -48.265625 27.957031 -48.21875 27.59375 -48.125 C 26.957031 -48.125 26.503906 -47.898438 26.234375 -47.453125 C 26.148438 -47.359375 25.925781 -46.8125 25.5625 -45.8125 C 25.5625 -45.445312 25.425781 -44.585938 25.15625 -43.234375 L 23.515625 -31.671875 L 21.890625 -19.171875 L 46.625 -19.171875 C 47.351562 -19.171875 47.96875 -19.191406 48.46875 -19.234375 C 48.96875 -19.285156 49.351562 -19.3125 49.625 -19.3125 C 50.4375 -19.488281 50.9375 -19.664062 51.125 -19.84375 C 51.476562 -20.03125 51.703125 -20.394531 51.796875 -20.9375 C 51.972656 -21.207031 52.109375 -21.613281 52.203125 -22.15625 C 52.296875 -22.695312 52.390625 -23.332031 52.484375 -24.0625 L 55.875 -48.265625 Z M 30.71875 -48.265625 "/></g></g></g><g fill="#000000" fill-opacity="1"><g transform="translate(121.95981, 261.259034)"><g><path d="M 8.15625 -48.265625 C 8.613281 -50.984375 8.976562 -53.222656 9.25 -54.984375 C 9.519531 -56.753906 9.695312 -58.09375 9.78125 -59 C 10.507812 -61.90625 11.460938 -63.898438 12.640625 -64.984375 C 13.734375 -66.066406 15.457031 -66.75 17.8125 -67.03125 C 19.4375 -67.300781 22.15625 -67.4375 25.96875 -67.4375 C 26.414062 -67.4375 27.003906 -67.4375 27.734375 -67.4375 C 28.460938 -67.4375 29.28125 -67.390625 30.1875 -67.296875 L 60.09375 -67.296875 C 61.09375 -67.390625 61.929688 -67.4375 62.609375 -67.4375 C 63.285156 -67.4375 63.804688 -67.4375 64.171875 -67.4375 C 67.972656 -67.4375 70.691406 -67.300781 72.328125 -67.03125 C 74.234375 -66.75 75.640625 -66.113281 76.546875 -65.125 C 77.453125 -64.125 77.90625 -62.351562 77.90625 -59.8125 C 77.90625 -58.09375 77.492188 -54.242188 76.671875 -48.265625 L 76 -43.234375 L 73.28125 -24.0625 L 72.59375 -19.171875 C 71.957031 -14.179688 71.414062 -10.78125 70.96875 -8.96875 C 70.425781 -6.25 69.65625 -4.300781 68.65625 -3.125 C 67.570312 -1.945312 65.894531 -1.085938 63.625 -0.546875 C 62.71875 -0.453125 61.175781 -0.335938 59 -0.203125 C 56.820312 -0.0664062 54.015625 0 50.578125 0 L 53.296875 -19.171875 L 53.96875 -24.0625 L 56.6875 -43.234375 L 57.375 -48.265625 C 56.46875 -48.265625 55.695312 -48.265625 55.0625 -48.265625 C 54.425781 -48.265625 53.972656 -48.21875 53.703125 -48.125 C 53.160156 -48.125 52.660156 -47.898438 52.203125 -47.453125 C 52.023438 -47.265625 51.800781 -46.675781 51.53125 -45.6875 C 51.53125 -45.320312 51.394531 -44.503906 51.125 -43.234375 L 48.40625 -24.0625 L 47.71875 -19.171875 C 47.351562 -16.359375 47.007812 -14.019531 46.6875 -12.15625 C 46.375 -10.300781 46.082031 -8.878906 45.8125 -7.890625 C 45.269531 -5.617188 44.410156 -3.894531 43.234375 -2.71875 C 42.421875 -1.90625 41.0625 -1.226562 39.15625 -0.6875 C 38.25 -0.5 36.660156 -0.335938 34.390625 -0.203125 C 32.128906 -0.0664062 29.226562 0 25.6875 0 L 28.421875 -19.171875 L 29.09375 -24.0625 L 31.8125 -43.234375 L 32.5 -48.265625 C 30.863281 -48.265625 29.863281 -48.21875 29.5 -48.125 C 28.78125 -48.125 28.238281 -47.941406 27.875 -47.578125 C 27.78125 -47.492188 27.6875 -47.289062 27.59375 -46.96875 C 27.507812 -46.65625 27.375 -46.269531 27.1875 -45.8125 C 27.1875 -45.445312 27.050781 -44.585938 26.78125 -43.234375 L 24.0625 -24.0625 L 23.390625 -19.171875 C 23.023438 -16.085938 22.632812 -13.570312 22.21875 -11.625 C 21.8125 -9.675781 21.472656 -8.203125 21.203125 -7.203125 C 20.660156 -4.847656 19.664062 -3.171875 18.21875 -2.171875 C 16.945312 -1.179688 15.039062 -0.546875 12.5 -0.265625 C 11.59375 -0.179688 10.300781 -0.113281 8.625 -0.0625 C 6.957031 -0.0195312 4.804688 0 2.171875 0 L -4.078125 0 C -2.265625 -1.539062 -1.132812 -2.535156 -0.6875 -2.984375 C 0.3125 -3.710938 0.992188 -4.441406 1.359375 -5.171875 C 1.722656 -5.804688 2.039062 -6.4375 2.3125 -7.0625 C 2.488281 -7.613281 2.625 -8.429688 2.71875 -9.515625 L 4.078125 -19.171875 L 4.765625 -24.0625 L 7.484375 -43.234375 Z M 8.15625 -48.265625 "/></g></g></g></svg>